# xmcd
#
# Track frame offsets:
#	150
#	17850
#	37202
#	52727
#	69752
#	84904
#	104929
#	124431
#	142656
#	160356
#	179708
#	195233
#	212258
#	227410
#	247435
#	266937
#
# Disc length: 3802
#
# Revision: 1
# Processed by: cddbd v1.5.2PL0 Copyright (c) Steve Scherf et al.
# Submitted via: kJams Pro (development) 1.0patch50.14
#
DISCID=e50ed810
DTITLE=Various Artist - Party Time Karaoke Girl Country 2
DYEAR=2003
DGENRE=Country
TTITLE0=Martina McBride - When God Fearin' Women
TTITLE1=Deana Carter - Strawberry Wine
TTITLE2=Jamie O'Neal - When I Think About Angels
TTITLE3=LeAnn Rimes - I Need You
TTITLE4=Faith Hill - This Kiss
TTITLE5=Dixie Chicks - Cowboy Take Me Away
TTITLE6=Shania Twain - From This Moment On
TTITLE7=Sara Evans - Born to Fly
TTITLE8=Martina McBride - When God Fearin' Women w⁄Vocal
TTITLE9=Deana Carter - Strawberry Wine w⁄Vocal
TTITLE10=Jamie O'Neal - When I Think About Angels w⁄Vocal
TTITLE11=LeAnn Rimes - I Need You w⁄Vocal
TTITLE12=Faith Hill - This Kiss w⁄Vocal
TTITLE13=Dixie Chicks - Cowboy Take Me Away w⁄Vocal
TTITLE14=Shania Twain - From This Moment On w⁄Vocal
TTITLE15=Sara Evans - Born to Fly w⁄Vocal
EXTD=YEAR: 2003
EXTT0=
EXTT1=
EXTT2=
EXTT3=
EXTT4=
EXTT5=
EXTT6=
EXTT7=
EXTT8=
EXTT9=
EXTT10=
EXTT11=
EXTT12=
EXTT13=
EXTT14=
EXTT15=
PLAYORDER=
